# xmcd CD database file
#
# Track frame offsets:
#	150
#	17188
#	33336
#	52736
#	69568
#	87172
#	102109
#	123108
#	139862
#	159697
#	176194
#	192421
#	213107
#
# Disc length: 3102 seconds
#
# Revision: 3
# Processed by: cddbd v1.5PL3 Copyright (c) Steve Scherf et al.
# Submitted via: CDex 1.51
#
DISCID=ac0c1c0d
DTITLE=LeAnn Rimes - I Need You
DYEAR=2000
DGENRE=Country
TTITLE0=I Need You
TTITLE1=Can't Fight The Moonlight (Theme from 'Coyote Ugly' Movie)
TTITLE2=Written In The Stars (Duet with Elton John)
TTITLE3=You Are
TTITLE4=Soon
TTITLE5=But I Do Love You (from 'Coyote Ugly' Movie)
TTITLE6=One Of These Days
TTITLE7=Love Must Be Telling Me Something
TTITLE8=I Believe In You
TTITLE9=Together, Forever, Always
TTITLE10=Can't Fight The Moonlight - Latino Mix
TTITLE11=Soon - Graham Stack Radio Edit
TTITLE12=I Need You - Dave Aude Radio Edit
EXTD=YEAR: 2000
EXTT0=
EXTT1=
EXTT2=
EXTT3=
EXTT4=
EXTT5=
EXTT6=
EXTT7=
EXTT8=
EXTT9=
EXTT10=
EXTT11=
EXTT12=
PLAYORDER=
